<svg width="28" height="28" viewBox="0 0 28 28" fill="none" xmlns="http://www.w3.org/2000/svg">
<path d="M3.49993 5.83337C3.34534 5.83118 3.19185 5.85974 3.04838 5.91739C2.90492 5.97504 2.77435 6.06063 2.66425 6.16918C2.55415 6.27773 2.46672 6.40709 2.40705 6.54972C2.34738 6.69235 2.31665 6.84542 2.31665 7.00004C2.31665 7.15465 2.34738 7.30772 2.40705 7.45035C2.46672 7.59299 2.55415 7.72234 2.66425 7.83089C2.77435 7.93944 2.90492 8.02503 3.04838 8.08268C3.19185 8.14033 3.34534 8.16889 3.49993 8.1667H24.4999C24.6545 8.16889 24.808 8.14033 24.9515 8.08268C25.0949 8.02503 25.2255 7.93944 25.3356 7.83089C25.4457 7.72234 25.5331 7.59299 25.5928 7.45035C25.6525 7.30772 25.6832 7.15465 25.6832 7.00004C25.6832 6.84542 25.6525 6.69235 25.5928 6.54972C25.5331 6.40709 25.4457 6.27773 25.3356 6.16918C25.2255 6.06063 25.0949 5.97504 24.9515 5.91739C24.808 5.85974 24.6545 5.83118 24.4999 5.83337H3.49993ZM3.49993 12.8334C3.34534 12.8312 3.19185 12.8597 3.04838 12.9174C2.90492 12.975 2.77435 13.0606 2.66425 13.1692C2.55415 13.2777 2.46672 13.4071 2.40705 13.5497C2.34738 13.6924 2.31665 13.8454 2.31665 14C2.31665 14.1546 2.34738 14.3077 2.40705 14.4504C2.46672 14.593 2.55415 14.7223 2.66425 14.8309C2.77435 14.9394 2.90492 15.025 3.04838 15.0827C3.19185 15.1403 3.34534 15.1689 3.49993 15.1667H24.4999C24.6545 15.1689 24.808 15.1403 24.9515 15.0827C25.0949 15.025 25.2255 14.9394 25.3356 14.8309C25.4457 14.7223 25.5331 14.593 25.5928 14.4504C25.6525 14.3077 25.6832 14.1546 25.6832 14C25.6832 13.8454 25.6525 13.6924 25.5928 13.5497C25.5331 13.4071 25.4457 13.2777 25.3356 13.1692C25.2255 13.0606 25.0949 12.975 24.9515 12.9174C24.808 12.8597 24.6545 12.8312 24.4999 12.8334H3.49993ZM3.49993 19.8334C3.34534 19.8312 3.19185 19.8597 3.04838 19.9174C2.90492 19.975 2.77435 20.0606 2.66425 20.1692C2.55415 20.2777 2.46672 20.4071 2.40705 20.5497C2.34738 20.6924 2.31665 20.8454 2.31665 21C2.31665 21.1546 2.34738 21.3077 2.40705 21.4504C2.46672 21.593 2.55415 21.7223 2.66425 21.8309C2.77435 21.9394 2.90492 22.025 3.04838 22.0827C3.19185 22.1403 3.34534 22.1689 3.49993 22.1667H24.4999C24.6545 22.1689 24.808 22.1403 24.9515 22.0827C25.0949 22.025 25.2255 21.9394 25.3356 21.8309C25.4457 21.7223 25.5331 21.593 25.5928 21.4504C25.6525 21.3077 25.6832 21.1546 25.6832 21C25.6832 20.8454 25.6525 20.6924 25.5928 20.5497C25.5331 20.4071 25.4457 20.2777 25.3356 20.1692C25.2255 20.0606 25.0949 19.975 24.9515 19.9174C24.808 19.8597 24.6545 19.8312 24.4999 19.8334H3.49993Z" fill="#3A645F"/>
</svg>
