<svg width="9" height="9" viewBox="0 0 9 9" fill="none" xmlns="http://www.w3.org/2000/svg">
<path d="M8.67859 4.49998C8.67859 4.85536 8.39071 5.14304 8.03573 5.14304H5.14287V8.0359C5.14287 8.39128 4.85499 8.67855 4.50001 8.67855C4.14504 8.67855 3.85716 8.39128 3.85716 8.0359V5.14304H0.964299C0.609321 5.14304 0.321442 4.85536 0.321442 4.49998C0.321442 4.1446 0.609321 3.85733 0.964299 3.85733H3.85716V0.964469C3.85716 0.60909 4.14504 0.321411 4.50001 0.321411C4.85499 0.321411 5.14287 0.60909 5.14287 0.964469V3.85733H8.03573C8.39131 3.85713 8.67859 4.1444 8.67859 4.49998Z" fill="white"/>
</svg>
